:FULLY-SPECIFIED
:FORCE-ALL-JOINTS-BE-3DOF
:DEGREES
645
root 5.55085 16.2408 -2.31771 15.1146 9.71441 1.68387
lfemur -14.4599 24.5275 -29.6989
ltibia 35.9724 -0 0
lfoot -38.146 18.5924 0.0483818
ltoes 19.3525 -0 0
rfemur -61.279 -28.9805 36.0953
rtibia 70.1559 -0 0
rfoot -6.24682 -1.90068 1.20908
rtoes 3.87638 -0 0
lowerback 0.477926 -4.53488 -6.02261
upperback -1.35596 -6.12761 -0.363408
thorax -1.07764 -3.00486 3.02213
lowerneck -9.81747 -6.86425 -0.491781
upperneck 4.81998 -9.57989 5.64836
head 3.50643 -4.49919 1.3052
lclavicle 8.40023e-14 -1.61241e-14 -1.52096e-30
lhumerus -33.2806 -67.337 115.253
lradius 71.5869 -0 0
lwrist 24.4476 0 0
lhand -5.38391 2.82125 0.0512122
lfingers 7.12502 -0 0
lthumb 20.4223 31.7407 0.042259
rclavicle 8.40023e-14 -1.61241e-14 -1.52096e-30
rhumerus -33.143 -7.84634 -73.2459
rradius 68.208 -0 0
rwrist -25.7004 0 0
rhand -29.3948 -46.1404 -0.00179194
rfingers 7.12502 -0 0
rthumb -2.73301 -76.1028 -0.00172976
646
root 5.54577 16.2205 -2.26004 15.46 8.43165 1.79282
lfemur -14.3732 24.4815 -29.9138
ltibia 35.9114 -0 0
lfoot -38.2395 18.2775 0.0430168
ltoes 19.0319 -0 0
rfemur -61.6268 -29.3459 36.5619
rtibia 70.1428 -0 0
rfoot -6.87846 -3.05236 1.07407
rtoes 4.3912 -0 0
lowerback 0.386902 -4.56695 -6.09938
upperback -1.38825 -6.1671 -0.425606
thorax -1.0555 -3.02373 2.99471
lowerneck -9.83533 -6.81485 -0.521847
upperneck 4.42819 -9.4934 5.75087
head 3.4002 -4.4649 1.35895
lclavicle 8.3163e-14 -1.72275e-14 -1.35239e-30
lhumerus -34.2641 -68.1068 116.539
lradius 72.0271 -0 0
lwrist 24.6021 0 0
lhand -5.16287 2.96226 0.0455343
lfingers 7.12502 -0 0
lthumb 20.6349 31.8617 0.037574
rclavicle 8.3163e-14 -1.72275e-14 -1.35239e-30
rhumerus -35.1437 -8.21603 -73.1508
rradius 66.606 -0 0
rwrist -24.4714 0 0
rhand -29.3934 -46.8805 -0.00159287
rfingers 7.12502 -0 0
rthumb -2.73159 -76.843 -0.00153759
647
root 5.54097 16.2013 -2.2056 15.7829 7.22019 1.88821
lfemur -14.2912 24.4384 -30.1166
ltibia 35.8538 -0 0
lfoot -38.3277 17.9803 0.0374811
ltoes 18.7293 -0 0
rfemur -61.9593 -29.6885 37.0061
rtibia 70.1303 -0 0
rfoot -7.47208 -4.13804 0.935009
rtoes 4.87718 -0 0
lowerback 0.301015 -4.59734 -6.17181
upperback -1.4187 -6.2044 -0.484303
thorax -1.03459 -3.04153 2.96881
lowerneck -9.85221 -6.76822 -0.550241
upperneck 4.05844 -9.4111 5.8471
head 3.29994 -4.43244 1.40963
lclavicle 8.23707e-14 -1.82691e-14 -1.17842e-30
lhumerus -35.2672 -68.8253 117.827
lradius 72.4427 -0 0
lwrist 24.748 0 0
lhand -4.95423 3.09536 0.0396755
lfingers 7.12502 -0 0
lthumb 20.8356 31.9758 0.0327396
rclavicle 8.23707e-14 -1.82691e-14 -1.17842e-30
rhumerus -37.0346 -8.56179 -73.0489
rradius 65.0937 -0 0
rwrist -23.3113 0 0
rhand -29.392 -47.5792 -0.00138755
rfingers 7.12502 -0 0
rthumb -2.73026 -77.5417 -0.0013394
648
root 5.53648 16.1834 -2.15473 16.082 6.08772 1.97092
lfemur -14.2144 24.3984 -30.3061
ltibia 35.8 -0 0
lfoot -38.4101 17.7026 0.0318949
ltoes 18.4465 -0 0
rfemur -62.2738 -30.0065 37.4247
rtibia 70.1187 -0 0
rfoot -8.02427 -5.15113 0.794936
rtoes 5.33129 -0 0
lowerback 0.220793 -4.62583 -6.23945
upperback -1.44711 -6.23928 -0.539135
thorax -1.01505 -3.05815 2.94461
lowerneck -9.86801 -6.72466 -0.576782
upperneck 3.71331 -9.33367 5.93647
head 3.2063 -4.40203 1.45693
lclavicle 8.16303e-14 -1.92425e-14 -1.00285e-30
lhumerus -36.2761 -69.4889 119.101
lradius 72.8312 -0 0
lwrist 24.8842 0 0
lhand -4.75929 3.2197 0.033763
lfingers 7.12502 -0 0
lthumb 21.0232 32.0825 0.0278608
rclavicle 8.16303e-14 -1.92425e-14 -1.00285e-30
rhumerus -38.8036 -8.8817 -72.9432
rradius 63.6806 -0 0
rwrist -22.2273 0 0
rhand -29.3907 -48.2321 -0.00118047
rfingers 7.12502 -0 0
rthumb -2.72901 -78.1946 -0.0011395
